<?xml version="1.0" encoding="utf-8"?>
<!-- Generator: Adobe Illustrator 21.0.0, SVG Export Plug-In . SVG Version: 6.00 Build 0)  -->
<svg version="1.1" id="Layer_1" xmlns="http://www.w3.org/2000/svg" xmlns:xlink="http://www.w3.org/1999/xlink" x="0px" y="0px"
	 viewBox="0 0 87.4424438 100" enable-background="new 0 0 87.4424438 100" xml:space="preserve">
<g>
	<path fill="#8CC2DD" d="M54.8963776,43.8083878v-3.0264397h-0.019001V8.5896492C54.8773766,3.8456912,51.0315514,0,46.2866364,0
		c-0.5562401,0-1.0968971,0.0627461-1.6236076,0.1637686c-0.3275375,0.06507-0.63908,0.1708771-0.9521255,0.2729932
		c-0.1691017,0.0535871-0.3433952,0.0941874-0.5078468,0.157617c-2.7981453,1.113435-4.8782005,3.6806922-5.3286324,6.7496443
		c1.2318192,1.9933839,1.9933853,4.1434274,1.9933853,6.6072021v29.2525291
		C43.4066048,42.9125786,48.9610672,42.7782021,54.8963776,43.8083878z"/>
	<path fill="#8CC2DD" d="M78.3156967,21.1313572c-0.9067383,0-1.755661,0.1790791-2.5652084,0.4472885v24.069891
		l-3.0660782,0.0094299V13.9391947c0-2.3720465-0.9615631-4.5194931-2.5161285-6.0739279
		c-1.5545731-1.5542979-3.7018814-2.5158572-6.0733871-2.5158572c-0.043335,0-0.0831146,0.0120296-0.1263084,0.012713
		c-0.5518646,0.0080657-1.094162,0.0576882-1.6160889,0.1652727c-0.2128448,0.0438809-0.4072342,0.1313701-0.6140633,0.1905618
		c-0.3399773,0.0976052-0.6866531,0.1807199-1.0080376,0.3176947c-0.220089,0.093914-0.4157104,0.2284284-0.6258202,0.3395672
		c-0.2833824,0.1499615-0.5767441,0.2842026-0.840168,0.4638286c-0.2049179,0.139709-0.3800316,0.3153706-0.5716858,0.4717574
		c-0.2371788,0.1934328-0.4865227,0.3730588-0.7016907,0.5904145c-0.0308952,0.0313048-0.0535889,0.070128-0.0840721,0.1018429
		c0.0095711,0.1938429,0.0578232,0.3766127,0.0578232,0.5727797v35.8597336
		c3.5595779,0.8612213,7.1520996,2.1966591,10.4557648,4.2160149c0.5625305,0.3438072,1.1167145,0.7075691,1.6610641,1.0921097
		l-1.7693329,2.5084763c-3.1580811-2.2397194-6.7415771-3.695591-10.347496-4.6362381
		c-1.0303192-0.2687531-2.0606384-0.492672-3.0684052-0.6718864c-5.9353104-1.0750237-11.5794487-0.9182243-15.0285683-0.6271896
		c-0.9182243,0.0672569-1.6349525,0.1567993-2.1501808,0.2240562c-0.4255524,0.044838-0.7390099,0.0895386-0.9182243,0.1119576
		V13.9512253c0-2.1501808-0.7615662-4.1435642-2.1501808-5.6889772c-0.3402519-0.4102411-0.7321739-0.7679896-1.1451492-1.0988073
		c-0.0745049-0.057415-0.1409416-0.1241255-0.2173576-0.1793528c-0.3212471-0.2389545-0.677494-0.4292431-1.0338745-0.6184382
		c-0.1757965-0.0924106-0.3398399-0.2031388-0.5224743-0.2835193c-0.4090099-0.1798997-0.8442688-0.3100395-1.2866344-0.4240484
		c-0.1248093-0.0326719-0.2403221-0.0869427-0.3674545-0.1140094c-0.5887737-0.1238518-1.2017441-0.1894684-1.8320751-0.1911087
		c-4.7270069,0.019958-8.5538349,3.8544402-8.5538349,8.5860939v25.9630795
		c0.590826,0.897583,1.1749516,1.9302254,1.4699535,3.1124229l3.5266304,11.4978409l0.9198647,3.0663528l0.1533794,0.3068962
		c5.6722984,0.1533775,18.0898666,1.6860771,24.8354111,11.3443222l-2.6068993,1.839592
		c-5.3652687-7.9721642-15.6364861-9.8116226-21.1562233-9.9651375C25.4533024,60.95187,24.2266769,60.95187,23.6137066,60.95187
		l-1.0732441-3.3731155l-0.9197292-3.0663528l-1.9303646-6.0871887v0.0434685l-0.1197491-0.3913765l-0.1066284-0.3045692
		l-0.8944378-2.8323212l-0.3220692-1.0061264c-0.1525593-0.5349121-0.3822193-1.0699615-0.6688824-1.5862846
		c-0.288166-0.5171432-0.6347046-1.0150108-1.0262184-1.4736443v-0.0157204
		c-0.4587708-0.6102371-1.0677776-1.2189713-1.6771936-1.6766472c-1.5325623-1.073246-3.3731127-1.6862144-5.3652668-1.6862144
		c0,0-1.7469101,0.0721779-2.6189299,0.3387451c-4.8207846,1.4746017-7.5323987,6.5779495-6.0568409,11.3987312
		l5.5618439,18.8599091C13.0703182,89.7011871,25.0332165,100,47.2373962,100
		c22.2049942,0,40.2050476-13.9872971,40.2050476-36.1922989V30.2590637
		C87.4424438,25.2175064,83.3563004,21.1313572,78.3156967,21.1313572z"/>
</g>
</svg>
