<svg class="hand-svg" xmlns="http://www.w3.org/2000/svg" width="48.35482" height="60" viewBox="0 0 48.35482 60">
	<path d="M9.69939,37.13717h3.11084l-.12088-1.99846-.2985-4.32556A2.61573,2.61573,0,0,1,14.815,28.01972c2.77363-.19389,7.38727-.43316,11.961-.29987A61.05167,61.05167,0,0,1,35.667,29.118a26.05074,26.05074,0,0,1,7.29491,3.429,4.57768,4.57768,0,0,1,1.99319,4.6486L43.916,43.0023c-1.33048,6.8378-4.18045,11.92956-8.31937,14.42134a18.43864,18.43864,0,0,1-9.669,2.3918h-.00005c-9.44867,0-14.18465-6.67341-17.69006-15.0417Z" fill="#8cc2dd"/>
    <g class="finger-1"><path d="M.90653,24.49478c5.784-3.57533,9.75978,12.346,9.75978,12.346,21.44895.29636,24.92709,20.57957,24.92709,20.57957C31.93723,59.94552,11.66906,64.681,6.11727,47.6809L.0271,26.48036A2.07354,2.07354,0,0,1,.90653,24.49478Z" fill="#8cc2dd"/></g>
    <g class="finger-2"><rect x="11.71684" y="3.57406" width="6.69274" height="34.71384" rx="3.34637" ry="3.34637" transform="translate(31.5317 40.77525) rotate(176.05228)" fill="#8cc2dd"/></g>
    <g class="finger-3"><path d="M24.90833,0h0a3.34637,3.34637,0,0,1,3.34637,3.34637V33.04065A3.34637,3.34637,0,0,1,24.90833,36.387h0A3.34637,3.34637,0,0,1,21.562,33.04065V3.34637A3.34637,3.34637,0,0,1,24.90833,0Z" fill="#8cc2dd"/></g>
    <g class="finger-4"><rect x="31.33244" y="3.57406" width="6.69274" height="34.71384" rx="3.34637" ry="3.34637" transform="translate(1.5233 -2.33783) rotate(3.94771)" fill="#8cc2dd"/></g>
    <g class="finger-5"><path d="M45.67152,15.71789h0a3.07352,3.07352,0,0,0-3.56566,2.48577L38.07727,40.71645A3.07352,3.07352,0,0,0,40.563,44.28211h0a3.07352,3.07352,0,0,0,3.56567-2.48577L48.1573,19.28355A3.07352,3.07352,0,0,0,45.67152,15.71789Z" fill="#8cc2dd"/></g>
</svg>
