<svg xmlns="http://www.w3.org/2000/svg" viewBox="0 0 400 400"><path fill="#EDAA9A" d="M42.27,93.8a7,7,0,0,0,9.78-1.53,184.66,184.66,0,0,1,63.66-54.75A180.94,180.94,0,0,1,200,17c100.91,0,183,82.09,183,183a182.58,182.58,0,0,1-10.2,60.39A7,7,0,1,0,386,265a196.57,196.57,0,0,0,11-65C397,91.37,308.63,3,200,3A196.74,196.74,0,0,0,40.74,84,7,7,0,0,0,42.27,93.8Z"/><path fill="#EDAA9A" d="M383.82,294.58a223.25,223.25,0,0,0-21.69-8.81c-9.7-48.67-44.49-68.22-69.16-76,2.8-6.66,6.26-17,6.26-27.42a51.95,51.95,0,1,0-102.66,11.27,7,7,0,0,0,13.67-3,38,38,0,1,1,75-8.25c0,13.46-7.9,27.78-8,27.92a7.65,7.65,0,0,0,4.59,10.91c24.21,6,54,21.23,64.74,59.76-25.47-7-59.21-11.49-88.35.55-33.17,13.7-47,35-52.81,50.41a74.64,74.64,0,0,0-.41,51.05q-2.5.07-5,.07A183.12,183.12,0,0,1,41.31,291.06c1,0,2,.07,3,.07,10.7,0,22.76-2.56,32.74-8.46,14.56-8.61,24.58-22,31.53-42.23a123.5,123.5,0,0,0,3.65-13.08c35.31,17.85,75.74,37.7,108.81,37.7,16.12,0,30.5-4.72,41.68-16.69a7,7,0,1,0-10.23-9.55c-27.65,29.61-88.19-.79-137.12-25.56,3.73-17.5,6.07-36.24,8.34-54.43.59-4.76,1.18-9.51,1.79-14.19,16.34-.17,34.26-.75,50-5.71,20.79-6.54,34.43-20,40.54-39.86q.08-.25.13-.51c3.82-16.86-.43-33.67-11.38-45A42.09,42.09,0,0,0,166,41.49c-19.63,3.79-33.45,17.65-42.24,42.35-4.88,13.72-7.92,29.61-10.4,46.67-40.8-2-80.09-22-91.62-28.34a7,7,0,0,0-6.76,12.26c12.09,6.66,53,27.47,96.48,30q-.81,6.26-1.59,12.66c-2.07,16.63-4.21,33.71-7.39,49.63-22.12-11.06-39.87-19.11-52.37-19.23H49.5A55.65,55.65,0,0,0,17,197.5a182.81,182.81,0,0,1,8.45-52.7,7,7,0,1,0-13.35-4.22A196.94,196.94,0,0,0,3,200q0,7.92.62,15.69c0,.1,0,.2,0,.3a195.48,195.48,0,0,0,18,67.6,7,7,0,0,0,.73,1.57C54.2,351.27,121.86,397,200,397c5,0,9.9-.2,14.8-.57.18,0,.35,0,.53,0a6.94,6.94,0,0,0,1.65-.2,196.57,196.57,0,0,0,134.26-70,7,7,0,1,0-10.74-9,182.61,182.61,0,0,1-120.9,64.7,61.14,61.14,0,0,1-1.07-45.16c6.89-18.4,22.47-33.05,45-42.38,45.42-18.76,107.31,9.52,114.22,12.81a7,7,0,1,0,6-12.64ZM168.61,55.24a30.75,30.75,0,0,1,5.82-.56,28,28,0,0,1,20.35,8.63c7.71,8,10.57,19.58,7.85,31.89-4.84,15.52-14.79,25.17-31.29,30.37-13.26,4.17-29.12,4.85-43.89,5C133.18,92.19,142.11,60.35,168.61,55.24ZM49.49,201.5h.45c10,.09,28.74,9,49.44,19.35a138,138,0,0,1-4,14.86l0,.12c-5.8,16.91-13.88,28-25.43,34.79-11.31,6.69-27.12,7.95-36.47,5.2a181.57,181.57,0,0,1-15.7-59.15C22.73,208.85,34,201.5,49.49,201.5Z"/></svg>
