<svg version="1.1" xmlns="http://www.w3.org/2000/svg" xmlns:xlink="http://www.w3.org/1999/xlink" x="0px" y="0px" width="240px" height="240px" viewBox="0 0 240 240" style="enable-background:new 0 0 240 240;" xml:space="preserve">
<path fill="#FFFFFF" d="M120,240C53.832,240,0,186.168,0,120c0-13.603,2.26-26.951,6.715-39.675c0.647-1.847,2.669-2.822,4.517-2.174
c1.847,0.647,2.82,2.669,2.174,4.516C9.214,94.637,7.089,107.197,7.089,120c0,62.26,50.652,112.911,112.911,112.911
c35.527,0,68.273-16.224,89.844-44.511c1.187-1.556,3.411-1.857,4.967-0.669c1.557,1.187,1.856,3.411,0.67,4.967
C192.558,222.759,157.757,240,120,240z"/>
<path fill="#FFFFFF" d="M227.551,168.282c-0.455,0-0.916-0.088-1.362-0.273c-1.807-0.753-2.662-2.827-1.91-4.635
c5.728-13.752,8.631-28.346,8.631-43.374C232.911,57.74,182.26,7.089,120,7.089c-37.574,0-72.579,18.616-93.638,49.796
c-1.095,1.621-3.299,2.049-4.921,0.953c-1.622-1.096-2.049-3.299-0.953-4.921C42.867,19.782,80.067,0,120,0
c66.168,0,120,53.832,120,120c0,15.969-3.087,31.478-9.175,46.1C230.257,167.461,228.939,168.282,227.551,168.282z"/>
<path fill="#FFFFFF" d="M132.883,159.123c-20.86,0.001-46.677-13.07-68.805-24.272c-14.845-7.515-28.866-14.613-36.048-14.678
c-0.092-0.001-0.186-0.001-0.278-0.001c-10.467,0-17.926,5.362-20.693,10.72c-0.898,1.739-3.038,2.419-4.776,1.522
c-1.739-0.898-2.421-3.036-1.522-4.776c4.551-8.811,15.557-14.635,27.333-14.553c8.841,0.081,22.902,7.199,39.186,15.442
c30.302,15.341,68.014,34.431,85.444,15.769c1.335-1.43,3.578-1.507,5.009-0.172c1.431,1.336,1.507,3.579,0.171,5.009
C151.218,156.294,142.585,159.122,132.883,159.123z"/>
<path fill="#FFFFFF" d="M24.585,175.124c-4.334,0-8.29-0.703-11.229-1.965c-1.799-0.772-2.631-2.857-1.858-4.655
c0.772-1.798,2.856-2.631,4.655-1.858c5.571,2.391,16.746,1.871,24.508-2.718c7.239-4.28,12.296-11.182,15.915-21.722
c0.636-1.851,2.647-2.837,4.504-2.201c1.851,0.636,2.837,2.652,2.201,4.504c-4.197,12.225-10.238,20.335-19.012,25.522
C38.261,173.581,31.007,175.124,24.585,175.124z"/>
<path fill="#FFFFFF" d="M63.234,133.996c-0.267,0-0.539-0.031-0.81-0.094c-1.906-0.446-3.09-2.352-2.644-4.258
c2.524-10.792,4.152-22.992,5.727-34.791c4.487-33.618,9.127-68.382,35.828-70.668c8.308-0.709,15.899,1.962,21.398,7.522
c5.27,5.329,7.883,12.614,7.169,19.988c-0.339,3.508-4.455,33.974-44.462,33.974c-0.427,0-0.855-0.003-1.291-0.01
c-1.957-0.031-3.518-1.644-3.487-3.601c0.033-1.957,1.618-3.545,3.602-3.487c34.104,0.55,38.129-22.86,38.583-27.559
c0.51-5.273-1.369-10.492-5.154-14.32c-3.994-4.038-9.588-5.973-15.753-5.444c-21.032,1.801-25.1,32.277-29.407,64.543
c-1.597,11.966-3.249,24.339-5.85,35.467C66.299,132.892,64.843,133.995,63.234,133.996z"/>
<path fill="#FFFFFF" d="M129.398,239.675c-1.302,0-2.555-0.72-3.175-1.964c-5.857-11.754-6.638-24.758-2.196-36.616
c3.491-9.32,11.868-22.172,31.954-30.469c13.854-5.722,31.074-6.034,51.185-0.929c14.788,3.755,25.482,9.084,25.93,9.309
c1.748,0.878,2.454,3.007,1.576,4.756c-0.878,1.749-3.009,2.455-4.757,1.579c-0.412-0.207-41.453-20.463-71.228-8.164
c-14.033,5.797-23.723,14.927-28.021,26.404c-3.744,9.995-3.069,20.993,1.903,30.968c0.873,1.752,0.16,3.88-1.591,4.753
C130.468,239.554,129.929,239.674,129.398,239.675z"/>
<path fill="#FFFFFF" d="M70.884,85.348C37.681,85.35,5.809,66.311,4.469,65.5c-1.675-1.013-2.211-3.19-1.2-4.865s3.192-2.212,4.866-1.202
c0.312,0.188,31.556,18.826,62.744,18.826c0.002,0,0.003,0,0.005,0c1.957,0,3.544,1.587,3.544,3.544
C74.428,83.76,72.842,85.348,70.884,85.348z"/>
<path fill="#FFFFFF" d="M215.614,179.399c-1.706,0-3.209-1.234-3.494-2.972c-4.778-29.199-25.349-40.146-41.79-44.185
c-1.698-0.384-2.905-1.969-2.757-3.751c0.163-1.951,1.866-3.396,3.815-3.239l0.024,0.002c0.185,0.015,0.368,0.045,0.549,0.089
c15.166,3.714,41.461,15.141,47.155,49.939c0.316,1.932-0.994,3.754-2.925,4.07C215.997,179.383,215.804,179.399,215.614,179.399
z"/>
<path fill="#FFFFFF" d="M171.091,131.928c-0.587,0-1.183-0.146-1.732-0.454c-1.707-0.958-2.314-3.119-1.356-4.826
c0.047-0.086,4.983-9.026,4.983-17.477c0-13.236-10.768-24.005-24.004-24.005c-13.236,0-24.004,10.768-24.004,24.005
c0,1.761,0.191,3.516,0.567,5.216c0.423,1.911-0.783,3.803-2.695,4.227c-1.911,0.423-3.803-0.784-4.226-2.695
c-0.488-2.202-0.735-4.472-0.735-6.747c0-17.145,13.948-31.093,31.093-31.093s31.093,13.948,31.093,31.093
c0,10.334-5.651,20.518-5.891,20.947C173.534,131.277,172.331,131.928,171.091,131.928z"/>
</svg>
