<svg version="1.1" title="Email" xmlns="http://www.w3.org/2000/svg" xmlns:xlink="http://www.w3.org/1999/xlink" x="0px" y="0px"
	 viewBox="0 0 80 80" style="enable-background:new 0 0 80 80;" xml:space="preserve">
	<path d="M71.2,61.7L48.5,42.4l-4,3.4c-1.3,1.1-2.9,1.7-4.5,1.7c-1.6,0-3.2-0.6-4.5-1.7l-4-3.4L8.8,61.7H71.2z"/>
	<polygon points="74,20.8 51.4,40 74,59.1 	"/>
	<path d="M8.9,18.3L38,43c1.2,1,2.9,1,4,0l29-24.7H8.9z"/>
	<polygon points="6,61.6 6,61.7 6.1,61.7 	"/>
	<polygon points="73.9,61.7 74,61.7 74,61.6 	"/>
	<polygon points="28.6,40 6,20.8 6,59.1 	"/>
	<polygon points="6,18.3 6,18.3 6,18.3 	"/>
</svg>
