<svg version="1.1" title="Github" xmlns="http://www.w3.org/2000/svg" xmlns:xlink="http://www.w3.org/1999/xlink" x="0px" y="0px"
	 viewBox="0 0 80 80" style="enable-background:new 0 0 80 80;" xml:space="preserve">
	<path d="M28.7,74.9c1.8,0.3,2.4-0.8,2.4-1.7c0-0.9,0-3.7,0-6.7c-10,2.2-12.1-4.2-12.1-4.2c-1.6-4.1-4-5.2-4-5.2
		c-3.3-2.2,0.2-2.2,0.2-2.2c3.6,0.3,5.5,3.7,5.5,3.7c3.2,5.5,8.4,3.9,10.4,3c0.3-2.3,1.3-3.9,2.3-4.8c-8-0.9-16.3-4-16.3-17.7
		c0-3.9,1.4-7.1,3.7-9.6c-0.4-0.9-1.6-4.5,0.3-9.5c0,0,3-1,9.9,3.7c2.9-0.8,5.9-1.2,9-1.2c3,0,6.1,0.4,9,1.2
		c6.8-4.6,9.8-3.7,9.8-3.7c2,4.9,0.7,8.6,0.4,9.5c2.3,2.5,3.7,5.7,3.7,9.6c0,13.8-8.4,16.8-16.4,17.7c1.3,1.1,2.4,3.3,2.4,6.6
		c0,4.8,0,8.7,0,9.8c0,1,0.6,2.1,2.5,1.7c14.2-4.7,24.5-18.2,24.5-34C75.8,21.1,59.8,5,40,5C20.2,5,4.2,21.1,4.2,40.9
		C4.2,56.7,14.4,70.2,28.7,74.9z"/>
	<path d="M16.8,56.1c-0.1,0.2,0.1,0.4,0.3,0.5c0.3,0.1,0.5,0.1,0.6-0.1c0.1-0.2-0.1-0.4-0.3-0.5C17.2,55.8,16.9,55.9,16.8,56.1z"/>
	<path d="M18.3,57.2c-0.2,0.2-0.1,0.5,0.1,0.7c0.2,0.2,0.6,0.3,0.7,0.2c0.2-0.2,0.1-0.5-0.1-0.7C18.8,57.1,18.5,57.1,18.3,57.2z"/>
	<ellipse transform="matrix(0.8255 -0.5644 0.5644 0.8255 -30.1161 21.8041)" cx="20.2" cy="59.6" rx="0.5" ry="0.7"/>
	<path d="M21.4,61.1c-0.2,0.2-0.1,0.6,0.2,0.9c0.3,0.3,0.7,0.4,0.9,0.1c0.2-0.2,0.1-0.6-0.2-0.9C22,61,21.6,60.9,21.4,61.1z"/>
	<ellipse transform="matrix(0.2879 -0.9577 0.9577 0.2879 -43.0228 68.372)" cx="24.5" cy="63.1" rx="0.5" ry="0.8"/>
	<path d="M26.6,63.6c0,0.3,0.4,0.5,0.8,0.5c0.4,0,0.8-0.3,0.8-0.5c0-0.3-0.3-0.5-0.8-0.5C26.9,63,26.6,63.3,26.6,63.6z"/>
	<path d="M30,62.7c-0.4,0.1-0.7,0.4-0.7,0.7c0.1,0.3,0.4,0.5,0.9,0.4c0.4-0.1,0.7-0.4,0.7-0.7C30.8,62.8,30.4,62.6,30,62.7z"/>
</svg>
