<svg version="1.1" title="LinkedIn" xmlns="http://www.w3.org/2000/svg" xmlns:xlink="http://www.w3.org/1999/xlink" x="0px" y="0px"
	 viewBox="0 0 80 80" style="enable-background:new 0 0 80 80;" xml:space="preserve">
	<path d="M62.4,7H17.6C11.3,7,6.2,12.1,6.2,18.4v43.2c0,6.3,5.1,11.4,11.4,11.4h44.8c6.3,0,11.4-5.1,11.4-11.4V18.4
		C73.8,12.1,68.7,7,62.4,7z M28.8,60.5h-8.3V34h8.3V60.5z M24.7,30.3c-2.7,0-4.8-2.1-4.8-4.8c0-2.6,2.1-4.8,4.8-4.8
		c2.6,0,4.8,2.1,4.8,4.8C29.5,28.2,27.4,30.3,24.7,30.3z M59.8,60.5h-8.3V47.6c0-3.1-0.1-7-4.3-7c-4.3,0-5,3.4-5,6.8v13.1H34V34h7.9
		v3.6h0.1c1.1-2.1,3.8-4.3,7.8-4.3c8.4,0,9.9,5.5,9.9,12.7V60.5z"/>
</svg>
